<svg xmlns="http://www.w3.org/2000/svg" fill="#ff5400" height="512" width="512" xmlns:v="https://vecta.io/nano"><path d="M330.143 444.26l-60.042 60.038c-7.796 7.746-20.421 7.73-28.201 0l-60.042-60.038c-7.81-7.811-7.81-20.474 0-28.284s20.475-7.811 28.285 0L236 441.834V258.118c0-11.046 8.954-20 20-20s20 8.954 20 20v183.716l25.857-25.858c3.906-3.905 9.025-5.858 14.143-5.858s10.237 1.953 14.143 5.858c7.809 7.81 7.809 20.473 0 28.284zM396 360h-60c-11.046 0-20-8.954-20-20s8.954-20 20-20h60c43.327 0 76-34.393 76-80 0-39.665-24.168-71.17-60.14-78.397-9.521-1.913-16.292-10.389-16.055-20.097.024-.984.107-1.845.187-2.491C395.464 106.383 368.755 80 336 80c-6.507 0-13.136 1.253-20.266 3.831-8.014 2.898-16.993.396-22.353-6.234C274.064 53.703 245.859 40 216 40c-27.012 0-52.346 10.646-71.334 29.978-18.842 19.183-28.951 44.631-28.467 71.658a20 20 0 0 1-16.058 19.966C64.169 168.83 40 200.335 40 240c0 45.607 32.673 80 76 80h60c11.046 0 20 8.954 20 20s-8.954 20-20 20h-60C50.953 360 0 307.29 0 240c0-28.368 8.683-54.625 25.108-75.935 13.522-17.542 31.185-30.297 51.678-37.454C79.735 94.7 93.404 65.085 116.13 41.948 142.7 14.897 178.168 0 216 0c37.537 0 73.11 15.27 99.485 42.313C322.397 40.775 329.259 40 336 40c50.587 0 92.521 37.759 99.102 86.572 20.544 7.149 38.244 19.919 51.791 37.494C503.318 185.375 512 211.632 512 240c0 67.29-50.953 120-116 120z"/></svg>