<svg xmlns="http://www.w3.org/2000/svg" fill="#ff5400" height="512" width="512" xmlns:v="https://vecta.io/nano"><path d="M512 491.999c0 7.927-5.077 20.001-19.996 20.001-9.312 0-16.67-8.147-16.882-8.359-17.223-17.225-43.205-21.577-64.648-10.828C385.071 505.544 357.259 512 327.82 512c-59.393.001-113.764-26.984-148.853-74.045-6.604-8.855-4.777-21.386 4.078-27.989s21.388-4.776 27.988 4.079C238.496 450.878 281.149 472 327.801 472c23.182 0 44.959-5.029 64.751-14.947 25.323-12.691 54.268-13.198 79.446-2.74l-.006-125.691.001-.193c.445-46.402-21.578-90.653-58.915-118.37-8.868-6.584-10.721-19.111-4.137-27.98s19.113-10.72 27.98-4.137c47.545 35.296 75.604 91.65 75.07 150.763zM184.162 370c-29.423 0-57.23-6.455-82.636-19.187a55.1 55.1 0 0 0-24.731-5.841c-24.718 0-43.301 19.79-43.301 19.79a20 20 0 0 1-13.498 5.239 19.98 19.98 0 0 1-8.063-1.699C4.681 365.104 0 357.926 0 349.999l.008-163.285C-.442 137.148 18.62 90.355 53.69 54.947 88.783 19.514 135.417 0 185 0c49.939 0 96.643 19.385 131.506 54.585 34.971 35.308 53.965 82.268 53.485 132.228-.473 49.211-20.041 95.317-55.102 129.825C279.925 351.051 233.566 370 184.344 370h-.182zm-64.714-54.947C139.239 324.971 161.02 330 184.181 330c79.582.005 145.052-64.389 145.813-143.571.377-39.204-14.506-76.03-41.907-103.696C260.793 55.176 224.183 40 185 40c-38.825 0-75.366 15.305-102.891 43.095s-42.476 64.486-42.103 103.333c.001.064-.005 125.885-.005 125.885 11.704-4.861 24.226-7.354 36.814-7.354a94.99 94.99 0 0 1 42.633 10.094zM263 161c-13.807 0-25 11.193-25 25s11.193 25 25 25 25-11.193 25-25-11.192-25-25-25zm-79 0c-13.807 0-25 11.193-25 25s11.193 25 25 25 25-11.193 25-25-11.192-25-25-25zm-79 0c-13.807 0-25 11.193-25 25s11.193 25 25 25 25-11.193 25-25-11.192-25-25-25z"/></svg>