<svg xmlns="http://www.w3.org/2000/svg" fill="#ff5400" height="512" viewBox="0 0 512.032 512.032" width="512" xmlns:v="https://vecta.io/nano"><path d="M390.354 476.021H121.878c-35.786 0-69.249-19.478-87.33-50.833C11.946 385.995 0 341.329 0 296.021 0 184.145 69.943 83.254 176.905 48.471c34.975-11.374 71.759-14.986 109.33-10.736C400.31 50.637 491.992 141.551 509.068 256.601c9.136 61.546-2.947 121.783-34.944 174.199-17.027 27.894-49.126 45.221-83.77 45.221zM255.948 76.017C132.884 76.017 40 176.845 40 296.021c0 38.304 10.097 76.059 29.199 109.185 10.96 19.007 31.146 30.815 52.679 30.815h268.477c20.799 0 39.814-9.987 49.629-26.063 27.055-44.32 37.262-95.32 29.519-147.485C454.948 164.41 377.737 88.339 281.74 77.481c-8.658-.979-17.269-1.464-25.792-1.464zM412 316.021c-11.046 0-20-8.954-20-20 0-78.504-59.738-140-136-140s-136 61.496-136 140c0 11.046-8.954 20-20 20s-20-8.954-20-20c0-99.956 77.051-180 176-180 98.777 0 176 79.859 176 180 0 11.046-8.954 20-20 20zm-173.32 10l56.033-97.053c13.221-22.897 47.882-2.932 34.641 20l-56.033 97.053c-13.232 22.92-47.875 2.919-34.641-20z"/></svg>